<svg width="100" height="100" fill="none" xmlns="http://www.w3.org/2000/svg">
  <path d="M82.96 59.997H57.263v22.068H82.96V59.997ZM47.205 60.33H17.04v3.353h30.165V60.33ZM47.205 78.379H17.04v3.352h30.165v-3.352ZM47.205 69.356H17.04v3.352h30.165v-3.352Z" fill="#bef264"/>
  <path d="M81.334 0H18.668C8.357.002.003 8.357 0 18.667V77.98C.005 90.142 9.856 99.997 22.02 100h55.962c12.162-.003 22.015-9.856 22.018-22.019V18.667C99.998 8.357 91.643.002 81.334 0Zm9.448 77.981a12.743 12.743 0 0 1-3.75 9.051 12.742 12.742 0 0 1-9.05 3.75H22.02a12.747 12.747 0 0 1-9.052-3.75 12.748 12.748 0 0 1-3.75-9.05v-54.8h81.564v54.8Z" fill="#bef264"/>
  <path d="M17.375 52.326h6.755c3.85 0 6.18-1.676 6.18-5.185 0-2.12-1.205-3.588-2.383-4.033v-.053c1.178-.654 2.069-1.859 2.069-3.795 0-2.83-1.807-4.74-5.681-4.74h-6.94c-.155 0-.26.105-.26.262v17.28c0 .159.105.264.26.264Zm3.59-14.534c0-.103.049-.157.157-.157h2.723c1.465 0 2.329.76 2.329 2.067 0 1.31-.864 2.096-2.33 2.096h-2.723c-.107 0-.157-.052-.157-.157v-3.85Zm0 7.121c0-.103.049-.155.157-.155h2.93c1.574 0 2.41.864 2.41 2.227 0 1.386-.836 2.226-2.41 2.226h-2.93c-.108 0-.158-.054-.158-.158v-4.14ZM35.452 52.326h11.603c.155 0 .26-.105.26-.264v-2.905c0-.159-.105-.262-.26-.262h-7.857c-.106 0-.157-.052-.157-.158V34.782c0-.157-.103-.262-.261-.262h-3.328c-.157 0-.26.105-.26.262v17.28c0 .159.103.264.26.264ZM57.17 52.612c3.117 0 5.577-1.439 6.494-4.32.393-1.23.496-2.225.496-4.87s-.103-3.64-.496-4.871c-.917-2.879-3.377-4.32-6.495-4.32-3.116 0-5.577 1.441-6.492 4.32-.395 1.23-.5 2.226-.5 4.871 0 2.645.105 3.64.5 4.87.915 2.882 3.376 4.32 6.492 4.32ZM54.367 39.6c.393-1.231 1.338-1.964 2.802-1.964 1.467 0 2.41.733 2.802 1.964.21.63.288 1.49.288 3.823 0 2.33-.078 3.195-.288 3.822-.392 1.232-1.335 1.967-2.802 1.967-1.464 0-2.409-.735-2.802-1.967-.207-.627-.288-1.493-.288-3.822 0-2.332.08-3.193.288-3.823ZM75.774 52.612c3.14 0 5.602-1.596 6.494-4.452.313-.967.442-2.433.442-4.005v-1.468a.247.247 0 0 0-.26-.26h-6.126c-.16 0-.264.106-.264.26v2.517c0 .156.105.26.264.26h2.407c.105 0 .157.055.157.158 0 .757-.078 1.309-.21 1.756-.366 1.177-1.518 1.833-2.854 1.833-1.544 0-2.515-.735-2.908-1.967-.208-.627-.286-1.493-.286-3.822 0-2.332.078-3.169.286-3.797.393-1.231 1.337-1.99 2.858-1.99 1.465 0 2.353.628 3.062 1.833.052.13.183.183.368.13l2.8-1.178c.156-.078.185-.235.105-.394-.84-2.148-3.011-3.794-6.336-3.794-3.17 0-5.631 1.44-6.548 4.319-.393 1.23-.499 2.226-.499 4.871 0 2.645.106 3.64.5 4.87.916 2.882 3.377 4.32 6.548 4.32Z" fill="#bef264"/>
</svg>
