<svg width="100" height="101" fill="none" xmlns="http://www.w3.org/2000/svg">
  <path d="M63.75 94.8c3.207 0 3.207 4.925 0 4.925H4.995c-1.347 0-2.438-1.104-2.438-2.464V23.1c0-.68.273-1.297.713-1.742l19.17-19.36c.476-.48 1.1-.722 1.723-.722h55.145c1.346 0 2.439 1.104 2.439 2.464v43.107c0 3.24-4.877 3.24-4.877 0V6.201H25.172L7.432 24.119v70.68h56.319ZM22.27 73.09c-3.208 0-3.208-4.925 0-4.925h36.22c3.209 0 3.209 4.925 0 4.925H22.27Zm0-32.767c-3.208 0-3.208-4.925 0-4.925h36.22c3.209 0 3.209 4.925 0 4.925H22.27Zm0 10.923c-3.208 0-3.208-4.926 0-4.926h36.22c3.209 0 3.209 4.926 0 4.926H22.27Zm0 10.922c-3.208 0-3.208-4.926 0-4.926h36.22c3.209 0 3.209 4.926 0 4.926H22.27Zm0-32.767c-3.208 0-3.208-4.926 0-4.926h36.22c3.209 0 3.209 4.926 0 4.926H22.27Zm58.65 28.421c5.887 0 10.659 4.82 10.659 10.765 0 2.16-.63 4.17-1.713 5.854a17.184 17.184 0 0 1 7.574 13.265c.188 3.228-4.671 3.516-4.858.289a12.19 12.19 0 0 0-6.393-10.05 10.525 10.525 0 0 1-5.269 1.406c-2.074 0-4.01-.598-5.647-1.633-3.95 1.923-6.567 5.85-6.825 10.277-.188 3.227-5.046 2.94-4.858-.289a17.156 17.156 0 0 1 8.159-13.633 10.8 10.8 0 0 1-1.486-5.486c0-5.944 4.772-10.765 10.657-10.765Zm0 4.926c-3.192 0-5.78 2.615-5.78 5.84 0 3.224 2.588 5.837 5.78 5.837 3.193 0 5.782-2.613 5.782-5.838 0-3.224-2.588-5.84-5.782-5.84Z" fill="#bef264"/>
</svg>
