<svg width="173" height="176" fill="none" xmlns="http://www.w3.org/2000/svg"><g clip-path="url(#a)" fill="#C9C9C9"><path d="M82.271 4.435C80 6.46 77.273 8.87 76.295 9.813l-1.853 1.676v3.806c0 4.295.035 4.26-2.865 4.26h-1.328v-1.57c0-1.887-.14-1.921-4.09-.839-6.29 1.746-14.154 5.273-19.222 8.66-1.712 1.153-3.32 2.305-3.495 2.55-.28.349.42 1.292 2.831 3.876l3.18 3.422 2.447-1.641c5.452-3.667 14.714-7.403 20.515-8.207l3.006-.454 4.09 3.667c2.236 1.99 4.752 4.225 5.556 4.924l1.503 1.292 4.159-3.876c2.272-2.096 4.788-4.365 5.592-5.029l1.433-1.187 3.11.524c5.977 1.047 15.343 4.784 20.271 8.101 1.153.768 2.237 1.502 2.446 1.607.245.14 1.748-1.188 3.635-3.283l3.25-3.492-1.188-1.013c-4.124-3.457-15.273-8.8-21.808-10.406-5.278-1.292-4.718-1.397-4.718.663v1.781l-1.084-.21c-.594-.104-1.538-.209-2.097-.209h-1.013v-7.892l-5.103-4.54c-2.831-2.479-5.557-4.853-6.081-5.272L86.43.733l-4.159 3.702Zm7.235 7.124 2.76 2.48v7.577L89.61 23.99c-1.467 1.291-2.865 2.374-3.11 2.374-.245 0-1.643-1.082-3.11-2.374l-2.657-2.375v-7.578l2.796-2.48c1.573-1.361 2.901-2.479 3.04-2.479.106 0 1.434 1.118 2.937 2.48Zm-68.187 2.654c-2.376.873-5.382 4.05-6.081 6.39-1.048 3.562-.384 6.95 1.957 9.603 2.552 2.899 6.5 4.156 10.066 3.178l1.922-.524 2.271 2.165a200.631 200.631 0 0 1 4.824 4.75l2.55 2.619 1.993-1.99 1.992-1.991-4.718-4.715-4.683-4.679.629-1.327c2.132-4.47.175-10.267-4.299-12.78-2.307-1.328-5.941-1.607-8.423-.7Zm5.348 6.076c2.201 1.117 2.69 4.05 1.013 5.936-.734.838-1.328 1.118-2.621 1.258-1.503.174-1.713.104-2.866-1.048-1.014-1.013-1.223-1.467-1.223-2.689 0-2.828 3.18-4.75 5.697-3.457Zm118.269-6.181c-5.522 1.99-8.179 7.997-5.977 13.444.28.629.489 1.327.489 1.502 0 .21-1.957 2.34-4.368 4.784-2.412 2.444-4.369 4.61-4.369 4.784 0 .175.839 1.048 1.817 1.956l1.853 1.641 4.718-4.68 4.718-4.679 1.922.524c6.606 1.781 13.106-3.771 12.477-10.686-.454-5.063-4.823-9.114-9.82-9.079-1.189.035-2.726.245-3.46.489Zm5.347 6.39c1.293.734 1.887 1.921 1.852 3.527-.035 1.677-1.992 3.562-3.67 3.562-1.537 0-3.215-1.082-3.739-2.41-1.433-3.421 2.341-6.6 5.557-4.679Z"/><path d="M74.792 34.432c-8.423 1.92-13.735 4.47-23.311 11.14-.385.279-.91-.105-2.307-1.677-1.014-1.117-1.957-1.99-2.167-1.99-.175 0-1.328.977-2.516 2.165l-2.202 2.165 1.922 1.956 1.957 1.955-1.363 1.572c-2.097 2.374-4.683 6.11-6.535 9.393-.944 1.641-1.748 3.038-1.783 3.108-.07.07-.804-.035-1.607-.244-.84-.21-2.831-.42-4.474-.454-1.643-.035-3.075-.105-3.215-.21-.909-.489 3.914-10.022 7.2-14.213l1.048-1.361-2.062-1.886c-1.154-1.013-2.831-2.514-3.74-3.283l-1.643-1.397-1.887 2.375c-2.411 2.968-5.067 7.298-7.234 11.803-1.853 3.807-4.334 10.93-4.719 13.445l-.244 1.571 7.095-.105c11.288-.174 14.958.664 19.012 4.505 4.858 4.575 6.326 12.746 3.6 19.66-.979 2.515-3.565 5.972-5.452 7.369-3.215 2.339-4.893 2.619-15.098 2.619-4.998 0-9.087.104-9.087.209 0 1.362 2.516 9.289 4.264 13.41 2.201 5.203 6.046 11.838 8.807 15.19l.874 1.048 1.502-1.397c.84-.768 2.482-2.305 3.635-3.457l2.167-2.026-1.887-2.793c-2.586-3.772-6.43-11.559-5.976-12.048.104-.07 1.118-.279 2.271-.454a44.39 44.39 0 0 0 4.264-1.012l2.132-.664 1.083 2.13c1.643 3.283 4.3 7.438 6.746 10.581l2.236 2.829-1.922 1.885-1.887 1.851 2.341 2.375 2.342 2.374 1.957-1.92 1.922-1.886 3.146 2.235c5.767 4.156 14.4 7.857 21.913 9.429l3.04.628 3.356-3.108c1.852-1.711 3.565-3.247 3.81-3.422.349-.244 1.537.629 4.263 3.038 4.3 3.876 3.32 3.667 9.856 2.13 6.85-1.606 13.91-4.889 19.537-9.079l2.516-1.886 2.062 1.921 2.062 1.886 2.307-2.34 2.342-2.375-1.888-1.851-1.922-1.885 1.887-2.305c2.587-3.248 4.788-6.6 6.676-10.232 1.223-2.374 1.747-3.108 2.167-2.968.349.105 1.992.559 3.704 1.083 1.678.488 3.39.907 3.74.907.384 0 .664.21.664.489 0 .873-4.089 8.731-6.046 11.629l-1.958 2.898 3.495 3.213c1.958 1.781 3.67 3.248 3.845 3.248.419 0 2.761-3.178 5.102-6.95 2.377-3.841 4.928-9.114 6.326-13.13 1.014-2.968 2.866-9.428 2.691-9.428-.034 0-.978.384-2.027.873-2.726 1.187-6.116 1.711-9.646 1.466-5.172-.349-9.471-2.374-13.036-6.111-3.215-3.387-4.718-6.949-5.033-12.117-.978-15.016 14.889-26.086 27.89-19.52.909.453 1.713.837 1.818.837.209 0-.525-2.584-2.132-7.473-2.097-6.39-7.165-15.644-10.835-19.695l-1.328-1.502-3.39 3.178c-1.887 1.781-3.425 3.353-3.425 3.562 0 .175.559 1.013 1.223 1.816 2.027 2.48 6.78 11.21 6.326 11.629-.07.07-1.852.733-3.914 1.466-2.097.734-4.089 1.432-4.404 1.572-.454.21-.734-.105-1.293-1.362-1.014-2.305-4.823-7.997-7.13-10.651l-1.957-2.27 1.922-1.92 1.888-1.956-2.202-2.165c-1.188-1.188-2.342-2.165-2.517-2.165-.174 0-1.223.873-2.306 1.955l-1.957 1.956-2.866-2.13c-6.536-4.82-16.322-8.975-23.451-9.988l-1.573-.21-3.67 3.318c-2.027 1.851-3.774 3.353-3.88 3.353-.104 0-1.886-1.502-4.018-3.318-2.097-1.816-3.88-3.282-3.985-3.282-.105 0-1.817.384-3.844.873ZM98.558 52.87c6.256 1.606 11.987 6.81 14.294 12.92 2.272 6.042 1.293 13.62-2.447 19.207-2.516 3.806-5.941 6.46-9.646 7.578-.838.244-1.502.454-1.502.523 0 .07 1.398 1.956 3.075 4.226 1.713 2.27 6.641 8.87 10.974 14.666 4.369 5.797 7.829 10.616 7.724 10.721-.279.279-13.176.245-13.56-.07-.385-.244-1.014-1.117-11.359-15.085-3.32-4.505-6.92-9.394-8.003-10.826l-1.992-2.619-4.614-.07-4.613-.035-.105-5.028-.07-4.994 9.611-.174c9.192-.175 9.681-.21 11.114-.978 3.565-1.886 5.662-5.483 5.662-9.638 0-3.283-.839-5.273-3.145-7.613-3.041-3.003-3.356-3.073-17.72-3.073H70.25v60.063l-.77.175c-.454.105-2.935.14-5.521.105l-4.719-.105-.104-34.92c-.035-19.207 0-35.096.07-35.27.07-.245 6.57-.315 18.663-.28 15.692.035 18.872.14 20.69.594Z"/><path d="M147.906 71.587c-3.565.838-5.662 3.911-5.662 8.276 0 2.026-.104 2.55-.524 2.55-.279 0-1.013.454-1.642 1.012l-1.154 1.013-.105 5.797c-.104 5.657-.104 5.797.699 6.6.734.733 4.684 3.282 8.703 5.587l1.608.908 4.333-2.619c2.377-1.467 4.788-3.073 5.313-3.562l.978-.943-.105-5.866-.105-5.902-1.153-1.013c-.629-.558-1.363-1.012-1.643-1.012-.419 0-.524-.559-.524-2.794 0-3.038-.594-4.714-2.167-6.18-1.572-1.502-4.753-2.34-6.85-1.852Zm3.705 5.099c.699.454.769.803.769 3.108v2.619h-5.592v-2.235c0-2.829.21-3.318 1.538-3.911 1.153-.49 1.992-.385 3.285.419Zm-.699 11.174c1.363.943 1.608 1.781.839 3.073-.594.978-.629 1.292-.245 2.2 1.118 2.69 1.223 2.55-1.747 2.55-2.167 0-2.657-.105-2.517-.49.909-2.374 1.014-3.247.455-4.33-.664-1.257-.28-2.549.978-3.142 1.014-.524 1.328-.49 2.237.14ZM29.777 77l-1.049.873H.7l.07 9.848.105 9.882 13.42.105c11.883.07 13.526.14 14.085.663.944.839 3.774 1.013 5.138.315 2.306-1.223 3.145-4.19 1.782-6.39-1.503-2.48-3.914-3.109-6.745-1.712l-1.887.908H7.338V83.81h21.075l1.852.909c2.447 1.187 3.95.942 5.802-.909 1.118-1.082 1.328-1.536 1.328-2.758 0-2.969-1.957-4.924-4.963-4.924-1.223 0-1.887.21-2.656.873Zm135.394 2.235c1.293 3.771 1.259 12.047-.07 16.413-.244.873-.489 1.71-.489 1.85 0 .175 1.258.28 2.796.28 3.25 0 3.041.28 4.054-4.54.734-3.597.804-8.59.175-12.501l-.454-2.864h-6.501l.489 1.362Zm-131.06 58.317-4.509 4.505-1.433-.663c-1.642-.734-4.543-.873-6.5-.28-4.893 1.467-7.969 7.264-6.5 12.257.663 2.305 3.04 5.134 5.241 6.321 1.993 1.048 6.71 1.083 8.773.07 4.438-2.2 6.71-7.543 5.172-12.118l-.664-1.99 4.474-4.47 4.473-4.47-1.817-1.816c-1.014-1.012-1.922-1.85-2.027-1.85-.105 0-2.202 2.025-4.683 4.504Zm-7.55 9.638c1.433.734 2.098 1.851 2.098 3.527 0 1.677-.874 2.969-2.447 3.632-2.446 1.013-5.242-1.012-5.242-3.771 0-1.537.489-2.41 1.852-3.213 1.328-.838 2.377-.873 3.74-.175Zm105.898-12.187-1.923 1.956 4.509 4.295 4.473 4.295-.629 1.711c-1.398 3.597-.524 7.683 2.167 10.337 2.307 2.27 3.74 2.863 7.13 2.863 3.355 0 4.998-.628 7.165-2.793 6.151-6.181 1.922-16.937-6.676-16.937-1.188 0-2.831.245-3.635.524-1.782.629-1.293.943-6.989-4.61l-3.705-3.596-1.887 1.955Zm17.474 12.187c1.433.734 2.097 1.851 2.097 3.527 0 4.051-5.417 5.343-7.129 1.712-.979-1.991-.42-3.807 1.537-5.169 1.049-.733 2.167-.768 3.495-.07Zm-103.59-3.247c-1.643 1.781-3.006 3.387-3.006 3.562.035.733 5.557 4.365 10.1 6.67 4.684 2.339 14.295 5.762 16.217 5.762.49 0 .595-.315.595-1.607 0-1.327.104-1.571.559-1.397.314.105 1.258.21 2.097.21h1.537l.035 3.911V165l4.719 4.19c2.62 2.305 5.312 4.715 6.046 5.308l1.363 1.153 5.976-5.448 5.977-5.447v-7.613h4.194v1.606c0 1.362.104 1.572.594 1.397.314-.14 1.992-.629 3.739-1.117 3.985-1.118 10.38-3.632 13.91-5.448 3.006-1.537 9.087-5.552 9.262-6.076.035-.175-1.293-1.781-2.971-3.597l-3.041-3.283-3.075 2.026c-5.382 3.492-13.7 6.844-19.467 7.857-1.258.209-2.691.454-3.18.559-.804.139-1.643-.524-6.431-4.924l-5.522-5.099-1.258 1.188c-.7.628-3.18 2.898-5.487 5.028l-4.264 3.877-2.377-.454c-7.654-1.467-15.762-4.68-21.424-8.521-1.153-.803-2.167-1.432-2.271-1.432-.07 0-1.503 1.432-3.146 3.213Zm45.854 14.492.105 3.806-2.831 2.549c-3.216 2.899-2.517 2.969-6.57-.698l-2.168-1.955v-7.613l2.901-2.48 2.866-2.514 2.796 2.549 2.796 2.55.105 3.806Z"/></g><defs><clipPath id="a"><path fill="#fff" d="M0 0h173v176H0z"/></clipPath></defs></svg>