<svg version="1.0" xmlns="http://www.w3.org/2000/svg" width="660" height="672" viewBox="0 0 495 504">
  <path d="M235.4 12.7c-6.5 5.8-14.3 12.7-17.1 15.4l-5.3 4.8v10.9c0 12.3.1 12.2-8.2 12.2H201v-4.5c0-5.4-.4-5.5-11.7-2.4-18 5-40.5 15.1-55 24.8-4.9 3.3-9.5 6.6-10 7.3-.8 1 1.2 3.7 8.1 11.1l9.1 9.8 7-4.7c15.6-10.5 42.1-21.2 58.7-23.5l8.6-1.3 11.7 10.5c6.4 5.7 13.6 12.1 15.9 14.1l4.3 3.7 11.9-11.1c6.5-6 13.7-12.5 16-14.4l4.1-3.4 8.9 1.5c17.1 3 43.9 13.7 58 23.2 3.3 2.2 6.4 4.3 7 4.6.7.4 5-3.4 10.4-9.4l9.3-10-3.4-2.9c-11.8-9.9-43.7-25.2-62.4-29.8-15.1-3.7-13.5-4-13.5 1.9v5.1l-3.1-.6c-1.7-.3-4.4-.6-6-.6H282V32.4l-14.6-13c-8.1-7.1-15.9-13.9-17.4-15.1l-2.7-2.2-11.9 10.6zm20.7 20.4 7.9 7.1V61.9l-7.6 6.8c-4.2 3.7-8.2 6.8-8.9 6.8-.7 0-4.7-3.1-8.9-6.8l-7.6-6.8V40.2l8-7.1c4.5-3.9 8.3-7.1 8.7-7.1.3 0 4.1 3.2 8.4 7.1zM61 40.7C54.2 43.2 45.6 52.3 43.6 59c-3 10.2-1.1 19.9 5.6 27.5 7.3 8.3 18.6 11.9 28.8 9.1l5.5-1.5 6.5 6.2c3.6 3.4 9.8 9.5 13.8 13.6l7.3 7.5 5.7-5.7 5.7-5.7L109 96.5 95.6 83.1l1.8-3.8c6.1-12.8.5-29.4-12.3-36.6-6.6-3.8-17-4.6-24.1-2zm15.3 17.4c6.3 3.2 7.7 11.6 2.9 17-2.1 2.4-3.8 3.2-7.5 3.6-4.3.5-4.9.3-8.2-3-2.9-2.9-3.5-4.2-3.5-7.7 0-8.1 9.1-13.6 16.3-9.9zM414.7 40.4c-15.8 5.7-23.4 22.9-17.1 38.5.8 1.8 1.4 3.8 1.4 4.3 0 .6-5.6 6.7-12.5 13.7-6.9 7-12.5 13.2-12.5 13.7s2.4 3 5.2 5.6l5.3 4.7 13.5-13.4 13.5-13.4 5.5 1.5c18.9 5.1 37.5-10.8 35.7-30.6-1.3-14.5-13.8-26.1-28.1-26-3.4.1-7.8.7-9.9 1.4zM430 58.7c3.7 2.1 5.4 5.5 5.3 10.1-.1 4.8-5.7 10.2-10.5 10.2-4.4 0-9.2-3.1-10.7-6.9-4.1-9.8 6.7-18.9 15.9-13.4z"/>
  <path d="M214 98.6c-24.1 5.5-39.3 12.8-66.7 31.9-1.1.8-2.6-.3-6.6-4.8-2.9-3.2-5.6-5.7-6.2-5.7-.5 0-3.8 2.8-7.2 6.2l-6.3 6.2 5.5 5.6 5.6 5.6-3.9 4.5c-6 6.8-13.4 17.5-18.7 26.9-2.7 4.7-5 8.7-5.1 8.9-.2.2-2.3-.1-4.6-.7-2.4-.6-8.1-1.2-12.8-1.3-4.7-.1-8.8-.3-9.2-.6-2.6-1.4 11.2-28.7 20.6-40.7l3-3.9-5.9-5.4c-3.3-2.9-8.1-7.2-10.7-9.4l-4.7-4-5.4 6.8c-6.9 8.5-14.5 20.9-20.7 33.8-5.3 10.9-12.4 31.3-13.5 38.5l-.7 4.5 20.3-.3c32.3-.5 42.8 1.9 54.4 12.9 13.9 13.1 18.1 36.5 10.3 56.3-2.8 7.2-10.2 17.1-15.6 21.1-9.2 6.7-14 7.5-43.2 7.5-14.3 0-26 .3-26 .6 0 3.9 7.2 26.6 12.2 38.4 6.3 14.9 17.3 33.9 25.2 43.5l2.5 3 4.3-4c2.4-2.2 7.1-6.6 10.4-9.9l6.2-5.8-5.4-8C88 346 77 323.7 78.3 322.3c.3-.2 3.2-.8 6.5-1.3 3.4-.6 8.9-1.9 12.2-2.9l6.1-1.9 3.1 6.1c4.7 9.4 12.3 21.3 19.3 30.3l6.4 8.1-5.5 5.4-5.4 5.3 6.7 6.8 6.7 6.8 5.6-5.5 5.5-5.4 9 6.4c16.5 11.9 41.2 22.5 62.7 27l8.7 1.8 9.6-8.9c5.3-4.9 10.2-9.3 10.9-9.8 1-.7 4.4 1.8 12.2 8.7 12.3 11.1 9.5 10.5 28.2 6.1 19.6-4.6 39.8-14 55.9-26l7.2-5.4 5.9 5.5 5.9 5.4 6.6-6.7 6.7-6.8-5.4-5.3-5.5-5.4 5.4-6.6c7.4-9.3 13.7-18.9 19.1-29.3 3.5-6.8 5-8.9 6.2-8.5 1 .3 5.7 1.6 10.6 3.1 4.8 1.4 9.7 2.6 10.7 2.6 1.1 0 1.9.6 1.9 1.4 0 2.5-11.7 25-17.3 33.3l-5.6 8.3 10 9.2c5.6 5.1 10.5 9.3 11 9.3 1.2 0 7.9-9.1 14.6-19.9 6.8-11 14.1-26.1 18.1-37.6 2.9-8.5 8.2-27 7.7-27-.1 0-2.8 1.1-5.8 2.5-7.8 3.4-17.5 4.9-27.6 4.2-14.8-1-27.1-6.8-37.3-17.5-9.2-9.7-13.5-19.9-14.4-34.7-2.8-43 42.6-74.7 79.8-55.9 2.6 1.3 4.9 2.4 5.2 2.4.6 0-1.5-7.4-6.1-21.4-6-18.3-20.5-44.8-31-56.4l-3.8-4.3-9.7 9.1c-5.4 5.1-9.8 9.6-9.8 10.2 0 .5 1.6 2.9 3.5 5.2 5.8 7.1 19.4 32.1 18.1 33.3-.2.2-5.3 2.1-11.2 4.2-6 2.1-11.7 4.1-12.6 4.5-1.3.6-2.1-.3-3.7-3.9-2.9-6.6-13.8-22.9-20.4-30.5l-5.6-6.5 5.5-5.5 5.4-5.6-6.3-6.2c-3.4-3.4-6.7-6.2-7.2-6.2s-3.5 2.5-6.6 5.6l-5.6 5.6-8.2-6.1c-18.7-13.8-46.7-25.7-67.1-28.6l-4.5-.6-10.5 9.5c-5.8 5.3-10.8 9.6-11.1 9.6-.3 0-5.4-4.3-11.5-9.5-6-5.2-11.1-9.4-11.4-9.4-.3 0-5.2 1.1-11 2.5zm68 52.8c17.9 4.6 34.3 19.5 40.9 37 6.5 17.3 3.7 39-7 55-7.2 10.9-17 18.5-27.6 21.7-2.4.7-4.3 1.3-4.3 1.5 0 .2 4 5.6 8.8 12.1 4.9 6.5 19 25.4 31.4 42 12.5 16.6 22.4 30.4 22.1 30.7-.8.8-37.7.7-38.8-.2-1.1-.7-2.9-3.2-32.5-43.2-9.5-12.9-19.8-26.9-22.9-31l-5.7-7.5-13.2-.2-13.2-.1-.3-14.4-.2-14.3 27.5-.5c26.3-.5 27.7-.6 31.8-2.8 10.2-5.4 16.2-15.7 16.2-27.6 0-9.4-2.4-15.1-9-21.8-8.7-8.6-9.6-8.8-50.7-8.8H201v172l-2.2.5c-1.3.3-8.4.4-15.8.3l-13.5-.3-.3-100c-.1-55 0-100.5.2-101 .2-.7 18.8-.9 53.4-.8 44.9.1 54 .4 59.2 1.7z"/>
  <path d="M423.2 205c-10.2 2.4-16.2 11.2-16.2 23.7 0 5.8-.3 7.3-1.5 7.3-.8 0-2.9 1.3-4.7 2.9l-3.3 2.9-.3 16.6c-.3 16.2-.3 16.6 2 18.9 2.1 2.1 13.4 9.4 24.9 16l4.6 2.6 12.4-7.5c6.8-4.2 13.7-8.8 15.2-10.2l2.8-2.7-.3-16.8-.3-16.9-3.3-2.9c-1.8-1.6-3.9-2.9-4.7-2.9-1.2 0-1.5-1.6-1.5-8 0-8.7-1.7-13.5-6.2-17.7-4.5-4.3-13.6-6.7-19.6-5.3zm10.6 14.6c2 1.3 2.2 2.3 2.2 8.9v7.5h-16v-6.4c0-8.1.6-9.5 4.4-11.2 3.3-1.4 5.7-1.1 9.4 1.2zm-2 32c3.9 2.7 4.6 5.1 2.4 8.8-1.7 2.8-1.8 3.7-.7 6.3 3.2 7.7 3.5 7.3-5 7.3-6.2 0-7.6-.3-7.2-1.4 2.6-6.8 2.9-9.3 1.3-12.4-1.9-3.6-.8-7.3 2.8-9 2.9-1.5 3.8-1.4 6.4.4zM85.2 220.5l-3 2.5H2l.2 28.2.3 28.3 38.4.3c34 .2 38.7.4 40.3 1.9 2.7 2.4 10.8 2.9 14.7.9 6.6-3.5 9-12 5.1-18.3-4.3-7.1-11.2-8.9-19.3-4.9l-5.4 2.6H21v-22h60.3l5.3 2.6c7 3.4 11.3 2.7 16.6-2.6 3.2-3.1 3.8-4.4 3.8-7.9 0-8.5-5.6-14.1-14.2-14.1-3.5 0-5.4.6-7.6 2.5zM472.6 226.9c3.7 10.8 3.6 34.5-.2 47-.7 2.5-1.4 4.9-1.4 5.3 0 .5 3.6.8 8 .8 9.3 0 8.7.8 11.6-13 2.1-10.3 2.3-24.6.5-35.8l-1.3-8.2h-18.6l1.4 3.9zM97.6 393.9l-12.9 12.9-4.1-1.9c-4.7-2.1-13-2.5-18.6-.8-14 4.2-22.8 20.8-18.6 35.1 1.9 6.6 8.7 14.7 15 18.1 5.7 3 19.2 3.1 25.1.2 12.7-6.3 19.2-21.6 14.8-34.7l-1.9-5.7 12.8-12.8 12.8-12.8-5.2-5.2c-2.9-2.9-5.5-5.3-5.8-5.3-.3 0-6.3 5.8-13.4 12.9zM76 421.5c4.1 2.1 6 5.3 6 10.1s-2.5 8.5-7 10.4c-7 2.9-15-2.9-15-10.8 0-4.4 1.4-6.9 5.3-9.2 3.8-2.4 6.8-2.5 10.7-.5zM379 386.6l-5.5 5.6 12.9 12.3 12.8 12.3-1.8 4.9c-4 10.3-1.5 22 6.2 29.6 6.6 6.5 10.7 8.2 20.4 8.2 9.6 0 14.3-1.8 20.5-8 17.6-17.7 5.5-48.5-19.1-48.5-3.4 0-8.1.7-10.4 1.5-5.1 1.8-3.7 2.7-20-13.2L384.4 381l-5.4 5.6zm50 34.9c4.1 2.1 6 5.3 6 10.1 0 11.6-15.5 15.3-20.4 4.9-2.8-5.7-1.2-10.9 4.4-14.8 3-2.1 6.2-2.2 10-.2zM132.6 412.2c-4.7 5.1-8.6 9.7-8.6 10.2.1 2.1 15.9 12.5 28.9 19.1 13.4 6.7 40.9 16.5 46.4 16.5 1.4 0 1.7-.9 1.7-4.6 0-3.8.3-4.5 1.6-4 .9.3 3.6.6 6 .6h4.4l.1 11.2v11.3l13.5 12c7.5 6.6 15.2 13.5 17.3 15.2l3.9 3.3 17.1-15.6 17.1-15.6V450h12v4.6c0 3.9.3 4.5 1.7 4 .9-.4 5.7-1.8 10.7-3.2 11.4-3.2 29.7-10.4 39.8-15.6 8.6-4.4 26-15.9 26.5-17.4.1-.5-3.7-5.1-8.5-10.3l-8.7-9.4-8.8 5.8c-15.4 10-39.2 19.6-55.7 22.5-3.6.6-7.7 1.3-9.1 1.6-2.3.4-4.7-1.5-18.4-14.1l-15.8-14.6-3.6 3.4c-2 1.8-9.1 8.3-15.7 14.4l-12.2 11.1-6.8-1.3c-21.9-4.2-45.1-13.4-61.3-24.4-3.3-2.3-6.2-4.1-6.5-4.1-.2 0-4.3 4.1-9 9.2zm131.2 41.5.3 10.9-8.1 7.3c-9.2 8.3-7.2 8.5-18.8-2l-6.2-5.6v-21.8l8.3-7.1 8.2-7.2 8 7.3 8 7.3.3 10.9z"/>
  <style>
    path { fill: #000; }
    @media (prefers-color-scheme: dark) {
      path { fill: #FFF; }
    }
  </style>
</svg>
