<svg width="100" height="100" fill="none" xmlns="http://www.w3.org/2000/svg">
  <g clip-path="url(#a)">
    <path fill-rule="evenodd" clip-rule="evenodd" d="M50 0c27.615 0 50 22.95 50 51.265 0 22.645-14.31 41.855-34.165 48.64-2.535.505-3.435-1.096-3.435-2.461 0-1.69.06-7.21.06-14.07 0-4.78-1.6-7.9-3.395-9.49C70.2 72.614 81.9 68.28 81.9 48.59c0-5.6-1.94-10.17-5.15-13.76.52-1.295 2.235-6.51-.49-13.57 0 0-4.19-1.373-13.735 5.257C58.53 25.381 54.25 24.81 50 24.79c-4.25.02-8.525.591-12.515 1.726-9.555-6.63-13.755-5.256-13.755-5.256-2.715 7.06-1 12.274-.485 13.57-3.195 3.59-5.15 8.159-5.15 13.759 0 19.64 11.675 24.042 22.78 25.337-1.43 1.28-2.725 3.538-3.175 6.853-2.85 1.31-10.09 3.577-14.55-4.258 0 0-2.645-4.926-7.665-5.286 0 0-4.875-.064-.34 3.116 0 0 3.275 1.575 5.55 7.5 0 0 2.935 9.15 16.845 6.05.025 4.284.07 8.323.07 9.543 0 1.355-.92 2.941-3.415 2.466C14.325 93.135 0 73.915 0 51.265 0 22.95 22.39 0 50 0Z" fill="#bef264"/>
  </g>
  <defs>
    <clipPath id="a">
      <path fill="#fff" d="M0 0h100v100H0z"/>
    </clipPath>
  </defs>
</svg>
