<svg width="150" height="150" fill="none" xmlns="http://www.w3.org/2000/svg">
  <path d="M117 25H33.562A8.186 8.186 0 0 0 25 32.812v83.625A8.812 8.812 0 0 0 33.563 125H117a8.382 8.382 0 0 0 5.747-2.649 8.38 8.38 0 0 0 2.253-5.914V32.812A7.688 7.688 0 0 0 117 25Zm-60.75 83.375H41.687V63.812H56.25v44.563Zm-6.938-51.313a7.374 7.374 0 0 1-7.624-7.687 7.374 7.374 0 0 1 7.75-7.688 7.375 7.375 0 0 1 7.624 7.688 7.376 7.376 0 0 1-7.75 7.687Zm59.063 51.313H93.75V84c0-5.813-2.063-9.813-7.25-9.813a7.808 7.808 0 0 0-7.313 5.25 8.942 8.942 0 0 0-.5 3.563v25.375H64.314V63.812h14.374v6.25A14.503 14.503 0 0 1 91.814 62.5c9.437 0 16.562 6.25 16.562 19.563v26.312Z" fill="#FFF"/>
</svg>
